<?xml version="1.0" encoding="UTF-8"?><svg id="a" xmlns="http://www.w3.org/2000/svg" viewBox="0 0 100 91.833"><g id="b"><g><path d="M33.451,91.681c-7.62-1.712-13.033-4.435-16.237-8.168-3.205-3.734-4.806-8.246-4.806-13.535v-9.568c0-3.484-1.006-6.2-3.019-8.145-2.013-1.944-5.09-2.918-9.232-2.918v-6.86c4.142,0,7.219-.957,9.232-2.871,2.013-1.913,3.019-4.628,3.019-8.145v-9.614c0-5.321,1.602-9.841,4.806-13.56C20.418,4.579,25.831,1.864,33.451,.152l2.345,5.461c-4.299,1.09-7.347,3.042-9.144,5.857-1.798,2.816-2.696,6.278-2.696,10.386v9.614c0,3.268-.831,6.146-2.491,8.635-1.662,2.49-4.153,4.435-7.474,5.834,3.321,1.432,5.812,3.4,7.474,5.904,1.66,2.506,2.491,5.36,2.491,8.565v9.568c0,4.106,.898,7.553,2.696,10.338,1.797,2.784,4.845,4.737,9.144,5.857l-2.345,5.508Z" fill="#a9c606"/><path d="M33.551,91.833l-.143-.032c-7.621-1.712-13.113-4.477-16.323-8.218-3.208-3.737-4.834-8.315-4.834-13.605v-9.568c0-3.439-1.004-6.153-2.983-8.065-1.973-1.906-5.039-2.873-9.111-2.873h-.157v-7.11H.157c4.074,0,7.139-.951,9.112-2.826,1.979-1.881,2.982-4.594,2.982-8.064v-9.614c0-5.322,1.626-9.908,4.834-13.63C20.295,4.501,25.787,1.744,33.408,.032l.143-.032,2.445,5.694-.153,.039c-4.237,1.074-7.283,3.024-9.052,5.795-1.778,2.785-2.679,6.26-2.679,10.329v9.614c0,3.272-.844,6.197-2.509,8.693-1.626,2.437-4.075,4.379-7.284,5.777,3.207,1.428,5.657,3.393,7.284,5.844,1.665,2.514,2.509,5.415,2.509,8.624v9.568c0,4.068,.901,7.527,2.679,10.281,1.77,2.742,4.816,4.692,9.053,5.796l.151,.039-.052,.12-2.393,5.62ZM.314,49.222c4.093,.025,7.186,1.021,9.196,2.963,2.027,1.958,3.054,4.725,3.054,8.224v9.568c0,5.239,1.608,9.77,4.779,13.465,3.148,3.667,8.533,6.387,16.007,8.085l2.246-5.276c-4.241-1.132-7.297-3.11-9.085-5.879-1.8-2.79-2.713-6.287-2.713-10.395v-9.568c0-3.168-.832-6.03-2.472-8.507-1.64-2.471-4.133-4.44-7.41-5.853l-.258-.111,.259-.109c3.277-1.381,5.77-3.326,7.409-5.782,1.64-2.46,2.472-5.346,2.472-8.576v-9.614c0-4.109,.913-7.622,2.713-10.442,1.787-2.799,4.843-4.777,9.084-5.881L33.35,.305c-7.474,1.698-12.859,4.41-16.007,8.062-3.171,3.68-4.779,8.218-4.779,13.489v9.614c0,3.53-1.028,6.297-3.056,8.225-2.009,1.911-5.103,2.891-9.195,2.916v6.611Z"/></g><g><path d="M66.542,.152c7.621,1.711,13.035,4.434,16.24,8.168,3.205,3.734,4.807,8.246,4.807,13.535v9.568c0,3.484,1.006,6.2,3.019,8.145,2.014,1.944,5.091,2.917,9.234,2.917v6.861c-4.143,0-7.22,.957-9.234,2.871-2.013,1.914-3.019,4.628-3.019,8.145v9.615c0,5.321-1.602,9.84-4.807,13.559-3.205,3.718-8.619,6.433-16.24,8.145l-2.345-5.461c4.3-1.089,7.348-3.042,9.146-5.857,1.798-2.816,2.697-6.278,2.697-10.385v-9.615c0-3.267,.831-6.146,2.491-8.635,1.662-2.49,4.154-4.434,7.475-5.834-3.322-1.432-5.813-3.4-7.475-5.904-1.66-2.505-2.491-5.36-2.491-8.565v-9.568c0-4.107-.899-7.553-2.697-10.338-1.798-2.785-4.846-4.738-9.146-5.858L66.542,.152Z" fill="#648dce"/><path d="M66.442,91.833l-2.445-5.694,.153-.039c4.238-1.074,7.285-3.023,9.054-5.795,1.778-2.785,2.68-6.26,2.68-10.329v-9.615c0-3.271,.845-6.197,2.51-8.693,1.627-2.437,4.076-4.379,7.285-5.776-3.208-1.428-5.659-3.394-7.285-5.845-1.665-2.513-2.51-5.414-2.51-8.624v-9.568c0-4.068-.902-7.527-2.68-10.281-1.77-2.742-4.817-4.692-9.055-5.796l-.151-.039,.052-.12L66.442,0l.143,.032c7.623,1.711,13.116,4.477,16.327,8.218,3.208,3.737,4.835,8.314,4.835,13.605v9.568c0,3.439,1.004,6.152,2.984,8.065,1.973,1.906,5.039,2.872,9.112,2.872h.157v7.111h-.157c-4.074,0-7.141,.951-9.114,2.826-1.979,1.882-2.983,4.595-2.983,8.064v9.615c0,5.322-1.627,9.908-4.835,13.63-3.211,3.726-8.705,6.482-16.327,8.194l-.143,.032Zm-2.044-5.533l2.245,5.228c7.475-1.697,12.861-4.41,16.01-8.062,3.172-3.68,4.78-8.218,4.78-13.488v-9.615c0-3.53,1.028-6.297,3.056-8.225,2.01-1.91,5.104-2.891,9.197-2.915v-6.612c-4.093-.025-7.188-1.021-9.198-2.962-2.027-1.959-3.055-4.726-3.055-8.224v-9.568c0-5.24-1.608-9.77-4.78-13.465-3.148-3.668-8.535-6.388-16.01-8.085l-2.247,5.275c4.242,1.132,7.298,3.11,9.087,5.88,1.801,2.79,2.714,6.287,2.714,10.395v9.568c0,3.168,.832,6.03,2.473,8.507,1.64,2.471,4.134,4.44,7.412,5.853l.258,.111-.259,.109c-3.278,1.381-5.771,3.327-7.41,5.782-1.641,2.46-2.473,5.346-2.473,8.576v9.615c0,4.108-.913,7.622-2.714,10.442-1.787,2.8-4.844,4.778-9.085,5.881Z"/></g><path d="M38,33.916h24v24h-24v-24Z" fill="none"/><path d="M61.337,57.253v-11.337l14.171,14.171-14.171,14.171v-11.337H27.327v-5.668H61.337ZM38.663,17.575v11.334l34.01,.003v5.668H38.663v11.337l-14.171-14.171,14.171-14.171Z" fill="#fff" stroke="#000" stroke-miterlimit="10" stroke-width=".5"/></g></svg>