<svg xmlns="http://www.w3.org/2000/svg" viewBox="0 0 100 91.83"><path fill="#a9c606" d="M33.45 91.68c-7.62-1.71-13.03-4.43-16.24-8.17-3.2-3.73-4.8-8.24-4.8-13.53V60.4c0-3.48-1-6.2-3.02-8.14-2.01-1.95-5.1-2.92-9.23-2.92v-6.86c4.14 0 7.22-.96 9.23-2.87 2.01-1.92 3.02-4.63 3.02-8.15v-9.61c0-5.32 1.6-9.84 4.8-13.56 3.2-3.72 8.62-6.44 16.24-8.15L35.8 5.6c-4.3 1.1-7.35 3.04-9.15 5.86-1.8 2.82-2.7 6.28-2.7 10.39v9.61c0 3.27-.82 6.15-2.48 8.63-1.67 2.5-4.16 4.44-7.48 5.84 3.32 1.43 5.81 3.4 7.47 5.9 1.66 2.5 2.5 5.36 2.5 8.57v9.57c0 4.1.9 7.55 2.7 10.33 1.79 2.79 4.84 4.74 9.14 5.86l-2.35 5.5Z"/><path d="m33.55 91.83-.14-.03c-7.62-1.71-13.11-4.48-16.32-8.22-3.21-3.73-4.84-8.31-4.84-13.6V60.4c0-3.44-1-6.15-2.98-8.06-1.97-1.91-5.04-2.88-9.11-2.88H0v-7.1h.16c4.07 0 7.14-.96 9.1-2.83 1.99-1.88 3-4.6 3-8.07v-9.61c0-5.32 1.62-9.91 4.83-13.63 3.2-3.73 8.7-6.49 16.32-8.2l.14-.03L36 5.7l-.16.03c-4.23 1.08-7.28 3.03-9.05 5.8-1.78 2.78-2.68 6.26-2.68 10.33v9.61c0 3.27-.84 6.2-2.5 8.7-1.63 2.43-4.08 4.37-7.3 5.77 3.22 1.43 5.67 3.4 7.3 5.85a15.33 15.33 0 0 1 2.5 8.62v9.57c0 4.06.9 7.52 2.68 10.28 1.77 2.74 4.82 4.69 9.05 5.8l.16.03-.06.12-2.39 5.62ZM.31 49.23c4.1.02 7.19 1.01 9.2 2.96 2.03 1.95 3.05 4.72 3.05 8.22v9.57c0 5.24 1.61 9.77 4.78 13.46 3.15 3.67 8.54 6.39 16.01 8.09l2.25-5.28c-4.24-1.13-7.3-3.1-9.09-5.88-1.8-2.79-2.71-6.28-2.71-10.4v-9.56c0-3.17-.83-6.03-2.47-8.5-1.64-2.48-4.14-4.45-7.41-5.86l-.26-.11.26-.11c3.27-1.38 5.77-3.33 7.4-5.78a15.17 15.17 0 0 0 2.48-8.58v-9.61c0-4.11.91-7.62 2.71-10.44 1.79-2.8 4.84-4.78 9.09-5.89L33.34.3c-7.47 1.7-12.86 4.42-16 8.07-3.18 3.68-4.79 8.21-4.79 13.49v9.61c0 3.53-1.02 6.3-3.05 8.23-2 1.9-5.1 2.89-9.2 2.9v6.61Z"/><path fill="#648dce" d="M66.54.15c7.62 1.71 13.04 4.44 16.24 8.17 3.2 3.73 4.8 8.25 4.8 13.53v9.57c0 3.49 1.02 6.2 3.03 8.15 2.01 1.94 5.09 2.91 9.23 2.91v6.87c-4.14 0-7.22.95-9.23 2.87-2.01 1.91-3.02 4.63-3.02 8.14v9.62c0 5.32-1.6 9.84-4.8 13.56-3.21 3.71-8.63 6.43-16.25 8.14l-2.34-5.46c4.3-1.09 7.34-3.04 9.14-5.86 1.8-2.81 2.7-6.28 2.7-10.38v-9.62c0-3.26.83-6.14 2.5-8.63 1.65-2.5 4.14-4.44 7.47-5.84-3.33-1.43-5.82-3.4-7.48-5.9a15.15 15.15 0 0 1-2.49-8.57v-9.56c0-4.11-.9-7.56-2.7-10.34-1.8-2.79-4.84-4.74-9.14-5.86l2.34-5.5Z"/><path d="M66.44 91.83 64 86.13l.15-.03c4.24-1.07 7.28-3.02 9.05-5.8 1.78-2.78 2.68-6.26 2.68-10.32v-9.62c0-3.27.85-6.2 2.51-8.7 1.63-2.43 4.08-4.37 7.29-5.77-3.2-1.43-5.66-3.4-7.29-5.84a15.33 15.33 0 0 1-2.5-8.63v-9.57c0-4.06-.9-7.52-2.69-10.28-1.77-2.74-4.81-4.69-9.05-5.8L64 5.75l.05-.12L66.45 0l.13.03c7.63 1.71 13.12 4.48 16.33 8.22 3.21 3.74 4.84 8.31 4.84 13.6v9.57c0 3.44 1 6.16 2.98 8.07 1.97 1.9 5.04 2.87 9.11 2.87h.16v7.11h-.16c-4.07 0-7.14.95-9.11 2.83-1.98 1.88-2.98 4.6-2.98 8.06v9.62c0 5.32-1.63 9.9-4.84 13.63-3.21 3.72-8.7 6.48-16.33 8.19l-.14.03ZM64.4 86.3l2.24 5.23c7.48-1.7 12.86-4.41 16.01-8.06 3.18-3.68 4.78-8.22 4.78-13.5v-9.6c0-3.54 1.03-6.3 3.06-8.23 2-1.91 5.1-2.9 9.2-2.92v-6.6c-4.1-.03-7.2-1.03-9.2-2.97-2.03-1.96-3.06-4.73-3.06-8.23v-9.56c0-5.24-1.6-9.77-4.78-13.47C79.5 4.72 74.12 2 66.65.31L64.4 5.58c4.24 1.13 7.3 3.11 9.08 5.88 1.8 2.8 2.72 6.29 2.72 10.4v9.56c0 3.17.83 6.03 2.47 8.51 1.64 2.47 4.13 4.44 7.41 5.85l.26.12-.26.1c-3.28 1.39-5.77 3.33-7.4 5.79a15.16 15.16 0 0 0-2.48 8.57v9.62c0 4.1-.92 7.62-2.72 10.44-1.78 2.8-4.84 4.78-9.08 5.88Z"/><path fill="none" d="M38 33.92h24v24H38v-24Z"/><path fill="#fff" stroke="#000" stroke-miterlimit="10" stroke-width=".5" d="M61.34 57.25V45.92L75.5 60.09 61.34 74.26V62.92H27.33v-5.67h34ZM38.66 17.58V28.9h34.01v5.67h-34v11.34L24.48 31.75l14.17-14.17Z"/></svg>